<mxfile host="app.diagrams.net" modified="2022-04-03T06:10:04.910Z" agent="5.0 (Macintosh; Intel Mac OS X 10_15_7) AppleWebKit/605.1.15 (KHTML, like Gecko) Version/15.4 Safari/605.1.15" etag="8FT7fFrcWLQBFXkWMr1J" version="17.4.0" type="github">
  <diagram id="-PNdPaAjFeKxy-EOOfYA" name="Page-1">
    <mxGraphModel dx="1554" dy="897" grid="1" gridSize="10" guides="1" tooltips="1" connect="1" arrows="1" fold="1" page="1" pageScale="1" pageWidth="850" pageHeight="1100" math="0" shadow="0">
      <root>
        <mxCell id="0" />
        <mxCell id="1" parent="0" />
        <mxCell id="P5UM7dJKwEBTCQnFjk82-1" value="&lt;span style=&quot;white-space: pre&quot;&gt;	Goal&lt;/span&gt;&lt;br&gt;&lt;span style=&quot;white-space: pre&quot;&gt;1. Find the shortest path between player and Goal/Score without being touch by dangerous object.&lt;/span&gt;" style="rounded=0;whiteSpace=wrap;html=1;align=left;spacingLeft=10;" vertex="1" parent="1">
          <mxGeometry x="80" y="160" width="620" height="50" as="geometry" />
        </mxCell>
        <mxCell id="P5UM7dJKwEBTCQnFjk82-2" value="" style="rounded=0;whiteSpace=wrap;html=1;align=left;spacingLeft=10;" vertex="1" parent="1">
          <mxGeometry x="80" y="220" width="540" height="370" as="geometry" />
        </mxCell>
        <mxCell id="P5UM7dJKwEBTCQnFjk82-3" value="Player" style="ellipse;whiteSpace=wrap;html=1;aspect=fixed;fillColor=#d80073;fontColor=#ffffff;strokeColor=#A50040;" vertex="1" parent="1">
          <mxGeometry x="180" y="480" width="70" height="70" as="geometry" />
        </mxCell>
        <mxCell id="P5UM7dJKwEBTCQnFjk82-4" value="Goal" style="ellipse;whiteSpace=wrap;html=1;aspect=fixed;fillColor=#008a00;fontColor=#ffffff;strokeColor=#005700;" vertex="1" parent="1">
          <mxGeometry x="500" y="240" width="90" height="90" as="geometry" />
        </mxCell>
        <mxCell id="P5UM7dJKwEBTCQnFjk82-5" value="dangerous Object" style="ellipse;whiteSpace=wrap;html=1;aspect=fixed;fillColor=#a20025;fontColor=#ffffff;strokeColor=#6F0000;" vertex="1" parent="1">
          <mxGeometry x="240" y="250" width="80" height="80" as="geometry" />
        </mxCell>
        <mxCell id="P5UM7dJKwEBTCQnFjk82-9" value="Movement" style="shape=singleArrow;direction=west;whiteSpace=wrap;html=1;rotation=-108;" vertex="1" parent="1">
          <mxGeometry x="270" y="342.64" width="70" height="40" as="geometry" />
        </mxCell>
        <mxCell id="P5UM7dJKwEBTCQnFjk82-10" value="Gravity" style="ellipse;whiteSpace=wrap;html=1;aspect=fixed;fillColor=#6a00ff;fontColor=#ffffff;strokeColor=#3700CC;" vertex="1" parent="1">
          <mxGeometry x="490" y="500" width="80" height="80" as="geometry" />
        </mxCell>
        <mxCell id="P5UM7dJKwEBTCQnFjk82-11" value="Wall" style="rounded=0;whiteSpace=wrap;html=1;fillColor=#647687;fontColor=#ffffff;strokeColor=#314354;" vertex="1" parent="1">
          <mxGeometry x="390" y="220" width="30" height="140" as="geometry" />
        </mxCell>
        <mxCell id="P5UM7dJKwEBTCQnFjk82-15" value="&lt;span style=&quot;white-space: pre&quot;&gt;	&lt;/span&gt;Object&lt;br&gt;1. Player&lt;br&gt;2. Goal/Score&lt;br&gt;3. Wall/Room/Door&lt;br&gt;4. Dangerous Object/Enemy&lt;br&gt;5. Gravity/Magnet/Wind&lt;br&gt;6. Portals&lt;br&gt;7. Freezing/Melting&lt;br&gt;8. Red Light, Green Light" style="rounded=0;whiteSpace=wrap;html=1;align=left;spacingLeft=10;" vertex="1" parent="1">
          <mxGeometry x="640" y="360" width="200" height="140" as="geometry" />
        </mxCell>
        <mxCell id="P5UM7dJKwEBTCQnFjk82-16" value="&lt;span style=&quot;white-space: pre&quot;&gt;	Object Movement&lt;br&gt;0. Not Move&lt;br&gt;1. Not Move at all&lt;br&gt;2. Player&lt;br&gt;3. Following&lt;br&gt;4. Rotating&lt;br&gt;5. Move randomly&lt;br&gt;&lt;/span&gt;" style="rounded=0;whiteSpace=wrap;html=1;align=left;spacingLeft=10;" vertex="1" parent="1">
          <mxGeometry x="840" y="360" width="180" height="140" as="geometry" />
        </mxCell>
        <mxCell id="P5UM7dJKwEBTCQnFjk82-17" value="&lt;span style=&quot;white-space: pre&quot;&gt;	Keywords&lt;br&gt;1. Self Driving Car&lt;br&gt;2. Snake Game&lt;br&gt;3. Evolution Stimulator&lt;br&gt;4. Path finding&lt;br&gt;5. reinforcement Learning&lt;br&gt;6. Game Engine&lt;br/&gt;7. File Access&lt;br/&gt;8. Collision&lt;br&gt;&lt;/span&gt;" style="rounded=0;whiteSpace=wrap;html=1;align=left;spacingLeft=10;" vertex="1" parent="1">
          <mxGeometry x="640" y="520" width="230" height="160" as="geometry" />
        </mxCell>
        <mxCell id="P5UM7dJKwEBTCQnFjk82-18" value="&lt;span style=&quot;white-space: pre&quot;&gt;	Sub Project&lt;br&gt;1. Mouse View Navigator &amp;amp; Map&lt;br&gt;2. Collision&lt;br&gt;3. File Access&lt;br/&gt;4. Path Finding&lt;br&gt;5. ... ?&lt;br&gt;&lt;/span&gt;" style="rounded=0;whiteSpace=wrap;html=1;align=left;spacingLeft=10;" vertex="1" parent="1">
          <mxGeometry x="880" y="520" width="340" height="130" as="geometry" />
        </mxCell>
        <mxCell id="P5UM7dJKwEBTCQnFjk82-19" value="" style="group" vertex="1" connectable="0" parent="1">
          <mxGeometry x="1050" y="220" width="600" height="200" as="geometry" />
        </mxCell>
        <mxCell id="P5UM7dJKwEBTCQnFjk82-20" value="Shape Grids Space" style="rounded=1;whiteSpace=wrap;html=1;fontSize=12;fillColor=#FFFFFF;spacingTop=-10;" vertex="1" parent="P5UM7dJKwEBTCQnFjk82-19">
          <mxGeometry width="600" height="30" as="geometry" />
        </mxCell>
        <mxCell id="P5UM7dJKwEBTCQnFjk82-21" value="Discrete" style="rounded=0;whiteSpace=wrap;html=1;fontSize=12;fillColor=#FFFFFF;" vertex="1" parent="P5UM7dJKwEBTCQnFjk82-19">
          <mxGeometry x="200" y="20" width="200" height="20" as="geometry" />
        </mxCell>
        <mxCell id="P5UM7dJKwEBTCQnFjk82-22" value="Continuous" style="rounded=0;whiteSpace=wrap;html=1;fontSize=12;fillColor=#FFFFFF;" vertex="1" parent="P5UM7dJKwEBTCQnFjk82-19">
          <mxGeometry x="400" y="20" width="200" height="20" as="geometry" />
        </mxCell>
        <mxCell id="P5UM7dJKwEBTCQnFjk82-23" value="Euclidean" style="rounded=0;whiteSpace=wrap;html=1;fontSize=12;fillColor=#FFFFFF;" vertex="1" parent="P5UM7dJKwEBTCQnFjk82-19">
          <mxGeometry y="40" width="200" height="80" as="geometry" />
        </mxCell>
        <mxCell id="P5UM7dJKwEBTCQnFjk82-24" value="Non Euclidean" style="rounded=0;whiteSpace=wrap;html=1;fontSize=12;fillColor=#FFFFFF;" vertex="1" parent="P5UM7dJKwEBTCQnFjk82-19">
          <mxGeometry y="120" width="200" height="80" as="geometry" />
        </mxCell>
        <mxCell id="P5UM7dJKwEBTCQnFjk82-25" value="1. Squares&lt;br style=&quot;font-size: 12px;&quot;&gt;2. Triangles&lt;br style=&quot;font-size: 12px;&quot;&gt;3. Hexagon" style="rounded=0;whiteSpace=wrap;html=1;fontSize=12;fillColor=#FFFFFF;align=left;spacingLeft=10;" vertex="1" parent="P5UM7dJKwEBTCQnFjk82-19">
          <mxGeometry x="200" y="40" width="200" height="80" as="geometry" />
        </mxCell>
        <mxCell id="P5UM7dJKwEBTCQnFjk82-26" value="1. Pentagon&lt;br style=&quot;font-size: 12px;&quot;&gt;2. Squares&lt;br style=&quot;font-size: 12px;&quot;&gt;3.&amp;nbsp;" style="rounded=0;whiteSpace=wrap;html=1;fontSize=12;fillColor=#FFFFFF;align=left;spacingLeft=10;" vertex="1" parent="P5UM7dJKwEBTCQnFjk82-19">
          <mxGeometry x="200" y="120" width="200" height="80" as="geometry" />
        </mxCell>
        <mxCell id="P5UM7dJKwEBTCQnFjk82-27" value="1. Ordinary Space" style="rounded=0;whiteSpace=wrap;html=1;fontSize=12;fillColor=#FFFFFF;align=left;spacingLeft=10;" vertex="1" parent="P5UM7dJKwEBTCQnFjk82-19">
          <mxGeometry x="400" y="40" width="200" height="80" as="geometry" />
        </mxCell>
        <mxCell id="P5UM7dJKwEBTCQnFjk82-28" value="" style="rounded=0;whiteSpace=wrap;html=1;fontSize=12;fillColor=#FFFFFF;align=left;spacingLeft=10;" vertex="1" parent="P5UM7dJKwEBTCQnFjk82-19">
          <mxGeometry x="400" y="120" width="200" height="80" as="geometry" />
        </mxCell>
        <mxCell id="P5UM7dJKwEBTCQnFjk82-29" value="" style="rounded=0;whiteSpace=wrap;html=1;fontSize=12;fillColor=#FFFFFF;" vertex="1" parent="P5UM7dJKwEBTCQnFjk82-19">
          <mxGeometry y="20" width="200" height="20" as="geometry" />
        </mxCell>
      </root>
    </mxGraphModel>
  </diagram>
</mxfile>
